# File created by Blade
# Date/Time:  Thu Sep 25 21:01:51 2014
# Frame Rate: 120.000 fps
#------------------------------------------------------
:FULLY-SPECIFIED
:DEGREES
2801
root 4.447581 5.957840 -6.835378 31.261694 3.676781 -32.283201
Spine -11.557343 -3.417276 38.545768
Head -15.160077 12.639191 14.009540
LeftShoulder -3.792782 15.993197 18.392033
LeftArm 34.446368 52.541110 -52.848927
LeftForeArm 14.714524 -0.000000 47.153323
LeftHand -33.871880 0.000000 24.055613
LeftHandThumb1 -26.253704 0.000000 33.147579
RightShoulder -29.309697 10.562863 -23.602113
RightArm -60.617166 48.235325 26.539752
RightForeArm 42.942965 -0.000000 83.412678
RightHand 8.189201 -0.000000 21.647554
RightHandThumb1 -24.326973 -0.000000 -32.862282
LeftUpLeg -110.380190 -17.761137 -41.045332
LeftLeg 133.646448 -0.000000 -0.000000
LeftFoot 42.117991 9.587605 -23.019097
LeftToeBase 8.403751 -0.000000 -0.000000
RightUpLeg -21.021132 35.806154 -53.725444
RightLeg 134.223715 -0.000000 -0.000000
RightFoot 37.797842 12.539139 -22.008686
RightToeBase 9.158566 -0.000000 -0.000000
2802
root 4.455563 5.954068 -6.843654 31.279914 3.580473 -32.284241
Spine -11.451150 -3.391415 38.366912
Head -15.196951 12.582645 13.995184
LeftShoulder -3.783302 16.042133 18.445355
LeftArm 34.379991 52.469456 -52.819474
LeftForeArm 14.794193 -0.000000 47.373388
LeftHand -33.960077 0.000000 24.142645
LeftHandThumb1 -26.253704 0.000000 33.147579
RightShoulder -29.288819 10.576996 -23.583802
RightArm -60.589576 48.119505 26.452070
RightForeArm 43.522504 -0.000000 82.132078
RightHand 8.202814 -0.000000 22.022683
RightHandThumb1 -24.326973 -0.000000 -32.862282
LeftUpLeg -110.432775 -17.741233 -41.068104
LeftLeg 133.622462 -0.000000 -0.000000
LeftFoot 42.127665 9.711661 -23.110040
LeftToeBase 8.373318 -0.000000 -0.000000
RightUpLeg -20.947281 35.323840 -53.558010
RightLeg 134.117574 -0.000000 -0.000000
RightFoot 37.849276 12.336792 -21.687547
RightToeBase 8.802660 -0.000000 -0.000000
2803
root 4.462066 5.949404 -6.849103 31.286512 3.504238 -32.255633
Spine -11.367492 -3.424255 38.171540
Head -15.205977 12.571032 14.036303
LeftShoulder -3.803313 16.071385 18.493509
LeftArm 34.315555 52.443118 -52.778704
LeftForeArm 14.884369 0.000000 47.548129
LeftHand -34.120360 -0.000000 24.468092
LeftHandThumb1 -26.253704 0.000000 33.147579
RightShoulder -29.238001 10.623687 -23.597934
RightArm -60.548554 47.974213 26.386903
RightForeArm 44.143099 -0.000000 80.728378
RightHand 8.380348 -0.000000 22.441176
RightHandThumb1 -24.326973 -0.000000 -32.862282
LeftUpLeg -110.446557 -17.735947 -41.127458
LeftLeg 133.593912 -0.000000 -0.000000
LeftFoot 42.105741 9.656550 -23.075761
LeftToeBase 8.379510 -0.000000 -0.000000
RightUpLeg -20.828340 34.836401 -53.373454
RightLeg 133.991479 -0.000000 -0.000000
RightFoot 37.909637 12.247316 -21.622888
RightToeBase 9.155663 -0.000000 -0.000000
2804
root 4.470562 5.945271 -6.855558 31.295914 3.426599 -32.232304
Spine -11.278179 -3.426761 37.983098
Head -15.195376 12.522010 14.015706
LeftShoulder -3.771207 16.022108 18.543396
LeftArm 34.028829 52.390283 -52.944688
LeftForeArm 15.026845 -0.000000 47.713454
LeftHand -34.005498 -0.000000 24.534268
LeftHandThumb1 -26.253704 0.000000 33.147579
RightShoulder -29.216778 10.598969 -23.603455
RightArm -60.491227 48.134882 26.238002
RightForeArm 44.685665 -0.000000 79.241101
RightHand 8.436225 0.000000 23.042179
RightHandThumb1 -24.326973 -0.000000 -32.862282
LeftUpLeg -110.459021 -17.730954 -41.180874
LeftLeg 133.559061 -0.000000 -0.000000
LeftFoot 42.094701 9.699444 -23.133804
LeftToeBase 8.378278 -0.000000 -0.000000
RightUpLeg -20.726413 34.357930 -53.204325
RightLeg 133.880496 -0.000000 -0.000000
RightFoot 37.999491 12.171575 -21.333471
RightToeBase 9.266344 -0.000000 -0.000000
2805
root 4.477894 5.940548 -6.861826 31.317218 3.356659 -32.209740
Spine -11.208702 -3.449515 37.793539
Head -15.194060 12.509794 14.036874
LeftShoulder -3.773761 16.107626 18.608049
LeftArm 33.951832 52.285761 -52.965248
LeftForeArm 15.121840 -0.000000 47.888735
LeftHand -34.027934 -0.000000 24.674057
LeftHandThumb1 -26.253704 0.000000 33.147579
RightShoulder -29.165720 10.598879 -23.630124
RightArm -60.299525 47.860639 26.350777
RightForeArm 45.267038 -0.000000 77.810993
RightHand 8.763572 -0.000000 23.271186
RightHandThumb1 -24.326973 -0.000000 -32.862282
LeftUpLeg -110.485563 -17.742958 -41.219738
LeftLeg 133.531444 -0.000000 -0.000000
LeftFoot 42.075146 9.710061 -23.157301
LeftToeBase 8.368700 -0.000000 -0.000000
RightUpLeg -20.613566 33.765532 -52.994233
RightLeg 133.847214 -0.000000 -0.000000
RightFoot 37.901508 11.712677 -21.217373
RightToeBase 8.971870 -0.000000 -0.000000
2806
root 4.483393 5.937711 -6.870128 31.350568 3.281125 -32.203153
Spine -11.141256 -3.430101 37.605639
Head -15.205450 12.448063 14.065387
LeftShoulder -3.768243 16.145865 18.673566
LeftArm 33.864186 52.208725 -52.999020
LeftForeArm 15.244909 -0.000000 48.037069
LeftHand -34.099154 -0.000000 24.880438
LeftHandThumb1 -26.253704 0.000000 33.147579
RightShoulder -29.101219 10.647286 -23.607508
RightArm -60.218935 47.595253 26.305180
RightForeArm 45.715245 0.000000 76.486029
RightHand 8.928815 0.000000 23.243068
RightHandThumb1 -24.326973 -0.000000 -32.862282
LeftUpLeg -110.540976 -17.742668 -41.250804
LeftLeg 133.507626 -0.000000 -0.000000
LeftFoot 42.073126 9.762640 -23.201644
LeftToeBase 8.359493 -0.000000 -0.000000
RightUpLeg -20.522042 33.221252 -52.799221
RightLeg 133.810463 -0.000000 -0.000000
RightFoot 37.666205 11.514821 -21.288622
RightToeBase 8.918102 -0.000000 -0.000000
2807
root 4.489515 5.934680 -6.873045 31.364708 3.218941 -32.188678
Spine -11.084491 -3.412009 37.434156
Head -15.173078 12.397883 14.031237
LeftShoulder -3.718521 16.129485 18.714529
LeftArm 33.646214 52.166366 -53.107043
LeftForeArm 15.350311 -0.000000 48.209742
LeftHand -34.141881 -0.000000 25.086229
LeftHandThumb1 -26.253704 0.000000 33.147579
RightShoulder -29.057719 10.690415 -23.547624
RightArm -60.184945 47.375972 26.164502
RightForeArm 45.956313 -0.000000 75.288117
RightHand 9.098203 0.000000 23.045462
RightHandThumb1 -24.326973 -0.000000 -32.862282
LeftUpLeg -110.562647 -17.741061 -41.280339
LeftLeg 133.488322 -0.000000 -0.000000
LeftFoot 42.076394 9.718627 -23.145927
LeftToeBase 8.355118 -0.000000 -0.000000
RightUpLeg -20.388196 32.609747 -52.549252
RightLeg 133.697456 -0.000000 -0.000000
RightFoot 37.744021 11.047355 -21.205547
RightToeBase 8.844545 -0.000000 -0.000000
2808
root 4.497118 5.931945 -6.877692 31.383152 3.156990 -32.174977
Spine -11.030709 -3.404350 37.284500
Head -15.153920 12.327170 13.947704
LeftShoulder -3.686730 16.163193 18.730814
LeftArm 33.534819 52.115204 -53.115366
LeftForeArm 15.388314 -0.000000 48.387215
LeftHand -34.229320 -0.000000 25.231359
LeftHandThumb1 -26.253704 0.000000 33.147579
RightShoulder -29.009206 10.687578 -23.523499
RightArm -60.210994 47.269858 25.995531
RightForeArm 46.161245 -0.000000 74.108519
RightHand 9.092464 -0.000000 23.113372
RightHandThumb1 -24.326973 -0.000000 -32.862282
LeftUpLeg -110.578003 -17.740314 -41.310677
LeftLeg 133.462071 -0.000000 -0.000000
LeftFoot 42.069903 9.733799 -23.179291
LeftToeBase 8.323736 -0.000000 -0.000000
RightUpLeg -20.254636 32.041349 -52.323730
RightLeg 133.610898 -0.000000 -0.000000
RightFoot 37.512193 10.746489 -21.258365
RightToeBase 9.137803 -0.000000 -0.000000
